<svg version="1.2" xmlns="http://www.w3.org/2000/svg" viewBox="-355 -274 2263 1095" width="620" height="300">
	<title>GBX-svg</title>
	<defs>
		<clipPath clipPathUnits="userSpaceOnUse" id="cp1">
			<path d="m0 0.08h1552v546.84h-1552z"/>
		</clipPath>
	</defs>
	<style>
		.s0 { fill: #3d3935 } 
		.s1 { fill: #006548 } 
		.s2 { fill: #76bc21 } 
	</style>
	<g id="Clip-Path" clip-path="url(#cp1)">
		<g id="Layer">
			<path id="Layer" fill-rule="evenodd" class="s0" d="m535.6 90v-0.5c0-47.8 36.3-85.3 82.6-85.3 25.1 0 42.9 6.4 61.3 21.9l1.2 1.1-13.8 16.3-1.2-1.1c-10.8-9.4-24.1-18.1-48.2-18.1-33.5 0-59.8 28.5-59.8 64.8v0.4c0 39.4 25.1 65.8 62.4 65.8 16.1 0 32.9-5.8 45-15.4v-37.9h-49.2v-19.6h69.9v66.9l-0.5 0.5c-10.5 9.3-33 25.1-65.9 25.1-49.4 0-83.8-34.9-83.8-84.9zm235.6-20.4h-3c-27.8 0-45.7 20.9-45.7 53.3v49.2h-21v-122.7h20.9v26c10.4-18.5 27.6-29 47.2-28.1h1.6zm-0.5 66.2v-0.5c0-25.5 19.6-40.7 52.6-40.7 15.3 0 25.9 2.2 34.8 4.6v-1.6c0-20.1-11.6-30.8-33.6-30.8-12.1 0-23.6 2.8-36.5 8.7l-2.2 1-0.3-20.5 1-0.4c13.8-6.3 22.7-8.2 39.8-8.2 17.1 0 30.7 4.8 39.7 13.7 8.7 8.7 12.9 20.6 12.9 36.3v74.7h-20.8v-15.1c-7.9 8.7-20.9 17.6-41.2 17.6-23 0-46.2-13.3-46.2-38.8zm21.2-0.9c0 15.2 14.7 22.2 28.4 22.2 21.7 0 38.1-13.1 38.1-30.6v-9.9c-7.5-2.1-18.8-4.7-33.3-4.7-20.5 0-33.2 8.7-33.2 22.5 0 0 0 0.5 0 0.5zm127.5 69.1h-20.9v-154.7h20.9v20.7c11.9-15.6 26.4-23.2 44.1-23.2 28.4 0 58.6 22.2 58.6 63.5v0.5c0 41.5-30.2 63.8-58.6 63.8-17.7 0-32.5-7.4-44.1-22.1zm-0.7-93.7v0.5c0 27.9 21.1 44.6 41.6 44.6 23.8 0 40.4-18.3 40.4-44.4v-0.5c0-25.9-17-44.6-40.4-44.6-20 0-41.6 16.9-41.6 44.4zm203.7 61.7v-71.4c0-21.6-11.7-34.5-31.4-34.5-20.1 0-34.2 14.8-34.2 35.8v70.1h-21v-172h21v66.4c9.6-13.1 22.7-19.7 39.3-19.7 28.7 0 47.3 19.4 47.3 49.5v75.8c0 0-21 0-21 0zm38.1-168.6h23.5v22.9h-23.5zm22.1 168.6h-21v-122.8h21c0 0.1 0 122.8 0 122.8zm127.2-20.9c-9.8 11-24.4 23.7-49.9 23.7-34.6 0-62.7-28.5-62.7-63.6v-0.5c0-35.3 28.1-64 62.7-64 25.3 0 39.5 11.6 49 21.8l1 1.1-13.9 14.8-1.2-1.3c-8.6-9.1-18.9-17.5-35.1-17.5-23 0-41.1 19.6-41.1 44.6v0.5c0 25.2 18.6 44.9 42.3 44.9 12.9 0 24.5-5.6 35.3-17.3l1.1-1.2 13.6 12.8c0 0-1.1 1.2-1.1 1.2zm-207.9 125.1c8.7 8.7 13 20.6 13 36.3v74.7h-20.8v-15.1c-7.9 8.7-21 17.6-41.3 17.6-23 0-46.2-13.3-46.2-38.8v-0.5c0-25.4 19.7-40.7 52.6-40.7 15.3 0 25.9 2.2 34.9 4.6v-1.6c0-20.1-11.7-30.8-33.7-30.8-12 0-23.6 2.8-36.4 8.7l-2.3 1-0.2-20.5 0.9-0.4c13.8-6.3 22.7-8.2 39.8-8.2 17.1 0 30.8 4.8 39.7 13.7zm-7.6 65.4v-9.9c-7.4-2.1-18.7-4.7-33.2-4.7-20.5 0-33.3 8.6-33.3 22.5v0.4c0 15.3 14.7 22.3 28.4 22.3 21.8 0 38.1-13.2 38.1-30.6zm-347.7-65.4c8.7 8.7 13 20.6 13 36.3v74.7h-20.8v-15.1c-7.9 8.7-21 17.6-41.3 17.6-23 0-46.2-13.3-46.2-38.8v-0.5c0-25.4 19.7-40.7 52.6-40.7 15.4 0 25.9 2.2 34.9 4.6v-1.6c0-20.1-11.6-30.8-33.7-30.8-12 0-23.6 2.8-36.4 8.7l-2.3 1 0.1-20.8 0.9-0.4c13.5-6.2 22-7.9 39.5-7.9 17.1 0 30.8 4.8 39.7 13.7zm-7.6 65.4v-9.9c-7.4-2.1-18.7-4.7-33.2-4.7-20.5 0-33.3 8.6-33.3 22.5v0.5c0 15.2 14.8 22.2 28.4 22.2 21.8 0 38.1-13.2 38.1-30.6zm-82.2-66.6c0 37.7-32.7 54.6-65.1 54.6h-31.3v57.1h-21.4v-165.1h55.7c37.7 0 62.1 20.8 62.1 52.9zm-98 34.8h31.9c25.6 0 42.7-13.7 42.7-34v-0.5c0-21.4-15.2-33.6-41.8-33.6h-32.8zm315 42.2l13.5 12.8-1 1.1c-9.9 11-24.4 23.7-49.9 23.7-34.6 0-62.8-28.5-62.8-63.6v-0.4c0-35.4 28.2-64.1 62.8-64.1 25.3 0 39.4 11.6 49 21.8l1 1.1-14 14.8-1.1-1.2c-8.7-9.1-19-17.6-35.1-17.6-23.1 0-41.2 19.6-41.2 44.7v0.4c0 25.2 18.6 44.9 42.3 44.9 13 0 24.5-5.6 35.3-17.3 0 0 1.2-1.1 1.2-1.1z"/>
			<path id="Layer" fill-rule="evenodd" class="s0" d="m956.3 317.1l52.8 69.7h-25.2l-42.1-54.9-22.5 22.8v32.1h-20.9v-166.9h20.9v109.1l62.2-65h26.6zm273.5-53.1h20.9v100.4c0 18.4-5.2 33-15.7 43.4-10.7 10.8-26.9 16.5-46.6 16.5-20.5 0-39-5.7-55.2-16.9l-1.2-0.9 9.7-16.7 1.5 1c13.6 10 28.7 15 45 15 26.5 0 41.8-14.9 41.8-40.9v-9.5c-12.5 14.9-27.3 22.2-45.3 22.2-28.3 0-57.7-21.6-57.7-57.6v-0.5c0-36.3 29.4-58 57.7-58 18 0 33.2 7.1 45.1 21.1zm-41.6 16.4c-23 0-39.8 16.3-39.8 38.6v0.5c0 21.9 17.5 39.1 39.8 39.1 20.3 0 42.3-14.9 42.3-38.9v-0.4c0-24.4-21.5-38.9-42.3-38.9zm78.7-62.2h23.5v22.9h-23.5zm1.2 45.7h21v122.8h-21zm147.7 47v75.8h-20.9v-71.4c0-21.6-11.7-34.5-31.4-34.5-20.1 0-34.2 14.7-34.2 35.9v70h-21v-122.8h21v17.2c9.6-13.1 22.7-19.7 39.3-19.7 28.7 0 47.2 19.4 47.2 49.5zm136.2-47v100.4c0 18.4-5.2 33-15.7 43.4-10.7 10.8-26.8 16.5-46.6 16.5-20.4 0-39-5.7-55.1-16.9l-1.2-0.9 9.6-16.7 1.5 1.1c13.6 9.9 28.7 14.9 45 14.9 26.5 0 41.8-14.9 41.8-40.9v-9.5c-12.5 14.9-27.3 22.2-45.3 22.2-28.4 0-57.7-21.6-57.7-57.6v-0.5c0-36.3 29.3-58 57.7-58 18 0 33.2 7.1 45.1 21.1v-18.6c0 0 20.9 0 20.9 0zm-62.5 16.4c-23 0-39.7 16.3-39.7 38.7v0.4c0 22 17.4 39.1 39.7 39.1 20.3 0 42.3-14.8 42.3-38.8v-0.5c0-24.3-21.5-38.9-42.3-38.9zm-950.3 203.5h7v61.9h-7zm29.5 0h6.5l39 49.6v-49.6h6.8v61.9h-5.6l-39.9-50.7v50.7h-6.8zm90.5 6.5h-20.7v-6.5h48.5v6.5h-20.7v55.4h-7.1zm45.3-6.5h44.7v6.4h-37.7v21.2h33.7v6.3h-33.7v21.7h38.1v6.3h-45.1zm63.6 0h26.6c7.6 0 13.7 2.4 17.5 6.3 3.1 3 4.8 7.3 4.8 12.2v0.1c0 10.3-7 16.3-16.8 18l19 25.3h-8.6l-17.9-24h-17.6v24h-7zm26 31.7c9.2 0 15.9-4.9 15.9-12.8v-0.2c0-7.6-5.9-12.2-15.9-12.2h-19v25.2c0 0 19 0 19 0zm42.3-31.7h6.5l38.9 49.6v-49.6h6.8v61.9h-5.5l-39.9-50.7v50.7h-6.8zm97-0.4h6.5l28.2 62.3h-7.5l-7.3-16.3h-33.6l-7.3 16.3h-7.1c0 0 28.1-62.3 28.1-62.3zm17.2 39.7l-14-31.6-14.1 31.6zm35.8-32.8h-20.7v-6.5h48.5v6.5h-20.7v55.4h-7.1zm45.9-6.5h7v61.9h-7zm26.8 31.2v-0.2c0-17.1 12.8-32 31.6-32 18.8 0 31.5 14.7 31.5 31.8q0.1 0.1 0 0.2c0 17.1-12.9 32-31.7 32-18.7 0-31.4-14.7-31.4-31.8zm55.8 0v-0.2c0-14.1-10.2-25.6-24.4-25.6-14.1 0-24.1 11.3-24.1 25.4v0.2c0 14 10.2 25.6 24.3 25.6 14.1 0 24.2-11.4 24.2-25.4zm26.4-31.2h6.5l39 49.6v-49.6h6.8v61.9h-5.6l-39.9-50.7v50.7h-6.8zm97.1-0.4h6.5l28.2 62.3h-7.6l-7.2-16.3h-33.6l-7.3 16.3h-7.2c0 0 28.2-62.3 28.2-62.3zm17.2 39.7l-14.1-31.6-14.1 31.6zm34.1-39.3h7v55.5h34.8v6.4h-41.8z"/>
			<path id="Layer" class="s1" d="m195.7 295l-173.8-174.1q-3.4 6.7-6.2 13.6-2.9 6.9-5.2 14-2.4 7-4.3 14.2-1.9 7.2-3.3 14.6l192.8 193.1c0 0 0-75.4 0-75.4zm0-141.5l-109.8-109.9q-5.4 4.1-10.5 8.5-5.2 4.4-10 9.1-4.9 4.7-9.4 9.8-4.6 5-8.8 10.2l148.5 148.8c0 0 0-76.4 0-76.5zm0-153.3q-9 0.9-17.9 2.6-8.8 1.6-17.5 4-8.7 2.4-17.2 5.5-8.4 3.1-16.6 6.9l69.2 69.2c0 0 0-88.2 0-88.2zm-195.7 239.2c9.7 104.1 92 187 195.7 197.5v-1.4z"/>
			<path id="Layer" class="s2" d="m310.2 19.4q-8.1-3.8-16.5-6.9-8.4-3.1-17-5.4-8.6-2.4-17.4-4.1-8.8-1.7-17.7-2.7v87.8c0 0 68.6-68.7 68.6-68.7zm-68.6 417.5c102.9-11 184.5-93.3 194.6-196.6l-194.6 194.9zm0-66.8l191.8-192.2q-1.3-7.3-3.2-14.5-1.9-7.2-4.2-14.3-2.4-7.1-5.2-14-2.9-6.9-6.2-13.6l-173 173.3c0 0 0 75.3 0 75.3zm0-140.3l147.8-148q-4.3-5.3-8.8-10.4-4.5-5-9.4-9.7-4.8-4.8-9.9-9.2-5.1-4.4-10.5-8.5l-109.2 109.3c0 0 0 76.5 0 76.5z"/>
		</g>
	</g>
</svg>