<?xml version="1.0" encoding="utf-8"?>
<!-- Generator: Adobe Illustrator 19.2.1, SVG Export Plug-In . SVG Version: 6.00 Build 0)  -->
<svg version="1.1" id="layer" xmlns="http://www.w3.org/2000/svg" xmlns:xlink="http://www.w3.org/1999/xlink" width="620" height="300" viewBox="0 0 652 652" xml:space="preserve">
<style type="text/css">
	.st0{fill:#35363A;}
	.st1{fill:#FFFFFF;stroke:#58595B;stroke-width:0.1678;stroke-miterlimit:10;}
	.st2{fill:#0033A1;}
	.st3{fill:none;}
</style>
<g>
	<g>
		<path class="st0" d="M132.4,366.8v-33.1h11.4v8.1c5.5,9.9,12.6,14.9,21.5,14.9c4.5,0,8.3-1.4,11.4-4.1c3.1-2.8,4.7-6.4,4.7-10.8
			c0-4.3-1.3-7.4-3.8-9.4c-2.5-1.9-7.3-3.8-14.4-5.7c-8.2-2.2-14.2-4.3-18.2-6.2c-3.9-1.9-7.1-4.7-9.4-8.3
			c-2.3-3.6-3.5-7.9-3.5-12.8c0-7.7,2.6-13.8,7.7-18.3c5.1-4.6,11.5-6.9,19.2-6.9c7.3,0,14.1,2.4,20.3,7.1V275h11.2v27.7h-11.2v-6.4
			c-4.7-7-11.1-10.6-19.4-10.6c-5,0-8.8,1.1-11.5,3.4c-2.7,2.3-4,5-4,8.2c0,2.5,0.7,4.6,2,6.5c1.4,1.9,3.1,3.2,5.2,4.1
			c2.1,0.9,6.2,2.1,12.4,3.7c8.1,2.1,13.9,4.1,17.5,5.9c3.6,1.8,6.8,4.8,9.4,9.1c2.6,4.2,3.9,9.1,3.9,14.6c0,7.8-2.8,14.2-8.2,19.3
			s-12.3,7.6-20.4,7.6c-8.3,0-15.8-3-22.4-9v7.5C143.8,366.8,132.4,366.8,132.4,366.8z"/>
		<path class="st0" d="M274.8,329.6l11.9,6.6c-2.7,10.2-8.1,18-16.2,23.6c-8.1,5.6-17.4,8.4-28,8.4c-13.8,0-24.9-4.5-33.3-13.5
			c-8.4-9-12.5-20.1-12.5-33.3c0-14.5,4.2-26,12.6-34.6s19.4-12.9,32.9-12.9c11.9,0,22,3.3,30.1,9.8v-8.3h11.8v29.3h-11.8
			c-2.6-5.9-6.7-10.6-12.1-13.8c-5.5-3.3-11.2-4.9-17.3-4.9c-9.1,0-16.6,3.3-22.4,9.9c-5.8,6.6-8.8,14.9-8.8,24.9
			c0,10.3,3.1,18.7,9.4,25.2s13.7,9.8,22.3,9.8c7,0,13.4-2.3,19.2-6.8C268.4,344.5,272.5,338,274.8,329.6z"/>
		<path class="st0" d="M304.7,355.3v-68.5h-12.5v-11.4h37.1c7.7,0,13.9,0.6,18.4,1.8c4.6,1.2,8.3,3.7,11.3,7.6
			c3,3.9,4.5,8.7,4.5,14.5c0,12.1-6.3,19.7-18.8,22.8l16.1,33.2h11.2v11.4h-19.8l-20.8-42.7h-12.9v31.2h11.7v11.4h-38v-11.4H304.7z
			 M318.5,312.7h10.8c5.2,0,9-0.3,11.5-1s4.5-2.1,6.1-4.1s2.4-4.9,2.4-8.4c0-3-0.8-5.5-2.4-7.5c-1.6-2.1-3.6-3.4-5.9-3.9
			c-2.3-0.6-5.9-0.8-10.7-0.8h-11.7L318.5,312.7L318.5,312.7z"/>
		<path class="st0" d="M380.4,355.3v-68.5h-9.9v-11.4H404v11.4h-9.9v68.5h9.9v11.4h-33.5v-11.4H380.4z"/>
		<path class="st0" d="M422.5,355.3v-68.5H411v-11.4h32.6c9.6,0,16.8,0.7,21.5,2c4.8,1.4,8.8,4.4,12,9.2c3.2,4.8,4.8,10.4,4.8,17
			c0,5.2-1.1,9.9-3.2,14s-4.8,7.2-7.9,9.2s-6.7,3.3-10.6,4c-3.9,0.7-9.8,1-17.8,1h-6.3v23.5h11.8v11.4H411v-11.4H422.5z
			 M436.3,320.8h7.9c9,0,15.2-1.3,18.6-3.8c3.4-2.6,5.2-7.1,5.2-13.6c0-4.1-0.9-7.5-2.8-10.2s-4.1-4.4-6.8-5.2
			c-2.7-0.7-7.2-1.1-13.6-1.1h-8.5L436.3,320.8L436.3,320.8z"/>
		<path class="st0" d="M494.2,355.3v-68.5h-11.5v-11.4h32.6c9.6,0,16.8,0.7,21.5,2c4.8,1.4,8.8,4.4,12,9.2c3.2,4.8,4.8,10.4,4.8,17
			c0,5.2-1.1,9.9-3.2,14s-4.8,7.2-7.9,9.2s-6.6,3.3-10.6,4c-3.9,0.7-9.8,1-17.8,1H508v23.5h11.8v11.4h-37.1v-11.4H494.2z M508,320.8
			h7.9c9,0,15.2-1.3,18.6-3.8c3.4-2.6,5.2-7.1,5.2-13.6c0-4.1-0.9-7.5-2.8-10.2c-1.8-2.7-4.1-4.4-6.8-5.2c-2.7-0.7-7.2-1.1-13.6-1.1
			H508L508,320.8L508,320.8z"/>
		<path class="st0" d="M559.1,366.8v-33.1h11.4v8.1c5.5,9.9,12.6,14.9,21.5,14.9c4.5,0,8.3-1.4,11.4-4.1c3.1-2.8,4.7-6.4,4.7-10.8
			c0-4.3-1.3-7.4-3.8-9.4c-2.5-1.9-7.3-3.8-14.4-5.7c-8.2-2.2-14.2-4.3-18.2-6.2c-3.9-1.9-7.1-4.7-9.4-8.3
			c-2.3-3.6-3.5-7.9-3.5-12.8c0-7.7,2.6-13.8,7.7-18.3c5.1-4.6,11.5-6.9,19.2-6.9c7.3,0,14.1,2.4,20.3,7.1V275h11.2v27.7h-11.2v-6.4
			c-4.7-7-11.1-10.6-19.4-10.6c-5,0-8.8,1.1-11.5,3.4c-2.7,2.3-4,5-4,8.2c0,2.5,0.7,4.6,2,6.5c1.4,1.9,3.1,3.2,5.2,4.1
			c2.1,0.9,6.2,2.1,12.4,3.7c8.1,2.1,13.9,4.1,17.5,5.9c3.6,1.8,6.8,4.8,9.4,9.1c2.6,4.2,3.9,9.1,3.9,14.6c0,7.8-2.8,14.2-8.2,19.3
			c-5.5,5.1-12.3,7.6-20.4,7.6c-8.3,0-15.8-3-22.4-9v7.5C570.5,366.8,559.1,366.8,559.1,366.8z"/>
	</g>
</g>
<g>
	<rect x="21.6" y="274.1" class="st1" width="91.8" height="92.5"/>
	<g>
		<polygon class="st2" points="26.4,306.4 26.4,316.6 53.9,306.4 		"/>
		<polygon class="st2" points="67.5,282.1 80,297.1 108.6,286.5 108.6,278.9 26.4,278.9 26.4,286.4 55,297 		"/>
		<polygon class="st2" points="26.4,291.5 26.4,301.6 53.8,301.6 		"/>
		<polygon class="st2" points="108.6,301.6 108.6,291.6 81.5,301.6 		"/>
		<polygon class="st2" points="108.6,316.6 108.6,306.3 81.5,306.4 		"/>
		<polygon class="st2" points="67.5,289.2 61.2,296.9 73.9,296.9 		"/>
		<polygon class="st2" points="55.6,310.9 26.4,321.7 26.4,349.7 53.8,349.7 		"/>
		<polygon class="st2" points="60.4,310.9 58.7,349.7 76,349.7 74.4,310.9 		"/>
		<polygon class="st2" points="80.8,349.7 97.6,349.7 97.6,354.7 26.4,354.7 26.4,361.7 108.6,361.7 108.6,321.9 79.1,311 		"/>
		<rect x="26.2" y="301.6" class="st3" width="0.1" height="4.8"/>
		<polygon class="st3" points="26.2,286.4 26.2,291.5 26.4,291.5 26.4,286.4 		"/>
		<polygon class="st3" points="26.2,316.7 26.2,321.7 26.4,321.7 26.4,316.6 		"/>
		<rect x="26.3" y="349.7" class="st3" width="0.1" height="5"/>
		<polygon class="st3" points="108.6,291.6 108.6,286.5 108.6,286.5 		"/>
		<polygon class="st3" points="108.6,316.6 108.6,321.9 108.6,316.7 		"/>
		<path class="st3" d="M108.6,306.3v-4.7V306.3z"/>
	</g>
</g>
</svg>
